<svg height='100px' width='100px'  fill="#000000" xmlns="http://www.w3.org/2000/svg" xmlns:xlink="http://www.w3.org/1999/xlink" version="1.1" x="0px" y="0px" viewBox="0 0 512 512" style="enable-background:new 0 0 512 512;" xml:space="preserve"><g><path d="M273,229.5V202h29.1c9.4,0,17-7.6,17-17s-7.6-17-17-17H273v-27.6c0-9.4-7.6-17-17-17s-17,7.6-17,17V168   h-29.1c-9.4,0-17,7.6-17,17s7.6,17,17,17H239v27.5c0,9.4,7.6,17,17,17S273,238.9,273,229.5z"></path><path d="M92.7,494.9c5.4,3,11.9,2.9,17.2-0.4L256,404.6l146.2,89.9c2.7,1.7,5.8,2.5,8.9,2.5c2.9,0,5.7-0.7,8.2-2.2   c5.4-3,8.7-8.7,8.7-14.8V69.4c0-30.1-24.4-54.4-54.4-54.4H138.4C108.4,15,84,39.4,84,69.4v410.6C84,486.2,87.3,491.9,92.7,494.9z    M118,69.4c0-11.3,9.1-20.4,20.4-20.4h235.2c11.3,0,20.4,9.1,20.4,20.4v380.2l-129.1-79.5c-2.7-1.7-5.8-2.5-8.9-2.5   c-3.1,0-6.1,0.8-8.8,2.5L118,449.6V69.4z"></path></g></svg>