<svg height='100px' width='100px'  fill="#000000" xmlns="http://www.w3.org/2000/svg" xmlns:xlink="http://www.w3.org/1999/xlink" version="1.1" x="0px" y="0px" viewBox="0 0 80 80" style="enable-background:new 0 0 80 80;" xml:space="preserve"><g><g><g><path d="M67.5996,24.7998L66,25.9902l-4.6299,3.4297c-0.0498,0.0303-0.0898,0.0601-0.1396,0.0898l-20.6309,15.29     C40.4199,44.9302,40.21,45,40,45s-0.4199-0.0698-0.5996-0.2002l-23.6201-17.5L14,25.98l-1.6299-1.21L12,24.5V56     c0,0.5498,0.4502,1,1,1h54c0.5498,0,1-0.4502,1-1V24.5098L67.5996,24.7998z"></path></g><g><path d="M16.0303,25l0.9395,0.7002L40,42.7598l20.1504-14.9297c0-0.0103,0.0098-0.0103,0.0195-0.02L63.9697,25l2.7002-2H13.3203     l2.6992,2H16.0303z"></path></g></g></g></svg>